HIERARCHY
ROOT Hips
{
    OFFSET   0.000000   0.000000   0.000000
    CHANNELS 6 Xposition Yposition Zposition Zrotation Xrotation Yrotation
    JOINT Chest
    {
        OFFSET   0.000000   8.007230   0.000000
        CHANNELS 3 Zrotation Xrotation Yrotation
        JOINT Chest2
        {
            OFFSET   0.000000  22.077100   0.000000
            CHANNELS 3 Zrotation Xrotation Yrotation
            JOINT Neck
            {
                OFFSET   0.000000  23.254800  -0.000021
                CHANNELS 3 Zrotation Xrotation Yrotation
                JOINT Head
                {
                    OFFSET   0.000000  14.370000   1.956610
                    CHANNELS 3 Zrotation Xrotation Yrotation
                    End Site
                    {
                        OFFSET   0.000000  19.566000   0.000000
                    }
                }
            }
            JOINT LeftCollar
            {
                OFFSET   3.911900  19.017000  -0.467063
                CHANNELS 3 Zrotation Xrotation Yrotation
                JOINT LeftShoulder
                {
                    OFFSET  10.383700   0.000000   0.000000
                    CHANNELS 3 Zrotation Xrotation Yrotation
                    JOINT LeftElbow
                    {
                        OFFSET  26.662100   0.001529   0.000325
                        CHANNELS 3 Zrotation Xrotation Yrotation
                        JOINT LeftWrist
                        {
                            OFFSET  28.869000  -0.000011  -0.000096
                            CHANNELS 3 Zrotation Xrotation Yrotation
                            JOINT LeftFinger0
                            {
                                OFFSET   2.044650  -2.323460   3.252850
                                CHANNELS 3 Zrotation Xrotation Yrotation
                                JOINT LeftFinger01
                                {
                                    OFFSET   3.088130   0.000000   0.000000
                                    CHANNELS 3 Zrotation Xrotation Yrotation
                                    JOINT LeftFinger02
                                    {
                                        OFFSET   2.639460   0.000000   0.000000
                                        CHANNELS 3 Zrotation Xrotation Yrotation
                                        End Site
                                        {
                                            OFFSET   2.582190   0.000000   0.000000
                                        }
                                    }
                                }
                            }
                            JOINT LeftFinger1
                            {
                                OFFSET   8.364480   0.000000   3.252850
                                CHANNELS 3 Zrotation Xrotation Yrotation
                                JOINT LeftFinger11
                                {
                                    OFFSET   4.646930   0.000000   0.000000
                                    CHANNELS 3 Zrotation Xrotation Yrotation
                                    JOINT LeftFinger12
                                    {
                                        OFFSET   2.323460   0.000000   0.000000
                                        CHANNELS 3 Zrotation Xrotation Yrotation
                                        End Site
                                        {
                                            OFFSET   2.273050   0.000000   0.000000
                                        }
                                    }
                                }
                            }
                            JOINT LeftFinger2
                            {
                                OFFSET   8.364480   0.000016   1.078090
                                CHANNELS 3 Zrotation Xrotation Yrotation
                                JOINT LeftFinger21
                                {
                                    OFFSET   5.111620   0.000000   0.000000
                                    CHANNELS 3 Zrotation Xrotation Yrotation
                                    JOINT LeftFinger22
                                    {
                                        OFFSET   2.788160   0.000017   0.000000
                                        CHANNELS 3 Zrotation Xrotation Yrotation
                                        End Site
                                        {
                                            OFFSET   2.727660   0.000000   0.000000
                                        }
                                    }
                                }
                            }
                            JOINT LeftFinger3
                            {
                                OFFSET   7.899780   0.000015  -1.078090
                                CHANNELS 3 Zrotation Xrotation Yrotation
                                JOINT LeftFinger31
                                {
                                    OFFSET   4.646920   0.000000   0.000000
                                    CHANNELS 3 Zrotation Xrotation Yrotation
                                    JOINT LeftFinger32
                                    {
                                        OFFSET   2.323470   0.000000   0.000000
                                        CHANNELS 3 Zrotation Xrotation Yrotation
                                        End Site
                                        {
                                            OFFSET   2.273050   0.000000   0.000000
                                        }
                                    }
                                }
                            }
                            JOINT LeftFinger4
                            {
                                OFFSET   7.435090   0.000000  -3.252850
                                CHANNELS 3 Zrotation Xrotation Yrotation
                                JOINT LeftFinger41
                                {
                                    OFFSET   3.717550   0.000000   0.000000
                                    CHANNELS 3 Zrotation Xrotation Yrotation
                                    JOINT LeftFinger42
                                    {
                                        OFFSET   1.858760   0.000000   0.000000
                                        CHANNELS 3 Zrotation Xrotation Yrotation
                                        End Site
                                        {
                                            OFFSET   1.818440   0.000000   0.000000
                                        }
                                    }
                                }
                            }
                        }
                    }
                }
            }
            JOINT RightCollar
            {
                OFFSET  -3.911900  19.017000  -0.467062
                CHANNELS 3 Zrotation Xrotation Yrotation
                JOINT RightShoulder
                {
                    OFFSET -10.383700   0.000015   0.000000
                    CHANNELS 3 Zrotation Xrotation Yrotation
                    JOINT RightElbow
                    {
                        OFFSET -26.662100   0.001341   0.000385
                        CHANNELS 3 Zrotation Xrotation Yrotation
                        JOINT RightWrist
                        {
                            OFFSET -28.869000   0.000025  -0.000080
                            CHANNELS 3 Zrotation Xrotation Yrotation
                            JOINT RightFinger0
                            {
                                OFFSET  -2.044650  -2.323490   3.252850
                                CHANNELS 3 Zrotation Xrotation Yrotation
                                JOINT RightFinger01
                                {
                                    OFFSET  -3.088130   0.000000   0.000000
                                    CHANNELS 3 Zrotation Xrotation Yrotation
                                    JOINT RightFinger02
                                    {
                                        OFFSET  -2.639460   0.000000   0.000000
                                        CHANNELS 3 Zrotation Xrotation Yrotation
                                        End Site
                                        {
                                            OFFSET  -2.582190   0.000000   0.000000
                                        }
                                    }
                                }
                            }
                            JOINT RightFinger1
                            {
                                OFFSET  -8.364480   0.000000   3.252850
                                CHANNELS 3 Zrotation Xrotation Yrotation
                                JOINT RightFinger11
                                {
                                    OFFSET  -4.646930   0.000000   0.000000
                                    CHANNELS 3 Zrotation Xrotation Yrotation
                                    JOINT RightFinger12
                                    {
                                        OFFSET  -2.323470   0.000000   0.000000
                                        CHANNELS 3 Zrotation Xrotation Yrotation
                                        End Site
                                        {
                                            OFFSET  -2.273050   0.000000   0.000000
                                        }
                                    }
                                }
                            }
                            JOINT RightFinger2
                            {
                                OFFSET  -8.364480   0.000000   1.078090
                                CHANNELS 3 Zrotation Xrotation Yrotation
                                JOINT RightFinger21
                                {
                                    OFFSET  -5.111610   0.000000   0.000000
                                    CHANNELS 3 Zrotation Xrotation Yrotation
                                    JOINT RightFinger22
                                    {
                                        OFFSET  -2.788160   0.000000   0.000000
                                        CHANNELS 3 Zrotation Xrotation Yrotation
                                        End Site
                                        {
                                            OFFSET  -2.727660   0.000000   0.000000
                                        }
                                    }
                                }
                            }
                            JOINT RightFinger3
                            {
                                OFFSET  -7.899780   0.000000  -1.078090
                                CHANNELS 3 Zrotation Xrotation Yrotation
                                JOINT RightFinger31
                                {
                                    OFFSET  -4.646920   0.000000   0.000000
                                    CHANNELS 3 Zrotation Xrotation Yrotation
                                    JOINT RightFinger32
                                    {
                                        OFFSET  -2.323470   0.000000   0.000000
                                        CHANNELS 3 Zrotation Xrotation Yrotation
                                        End Site
                                        {
                                            OFFSET  -2.273050   0.000000   0.000000
                                        }
                                    }
                                }
                            }
                            JOINT RightFinger4
                            {
                                OFFSET  -7.435090   0.000000  -3.252850
                                CHANNELS 3 Zrotation Xrotation Yrotation
                                JOINT RightFinger41
                                {
                                    OFFSET  -3.717550   0.000000   0.000000
                                    CHANNELS 3 Zrotation Xrotation Yrotation
                                    JOINT RightFinger42
                                    {
                                        OFFSET  -1.858770   0.000000   0.000000
                                        CHANNELS 3 Zrotation Xrotation Yrotation
                                        End Site
                                        {
                                            OFFSET  -1.818440   0.000000   0.000000
                                        }
                                    }
                                }
                            }
                        }
                    }
                }
            }
        }
    }
    JOINT LeftHip
    {
        OFFSET   9.783010   0.000000   0.000000
        CHANNELS 3 Zrotation Xrotation Yrotation
        JOINT LeftKnee
        {
            OFFSET   0.000070 -41.789100   0.000028
            CHANNELS 3 Zrotation Xrotation Yrotation
            JOINT LeftAnkle
            {
                OFFSET   0.000087 -41.133200  -0.000100
                CHANNELS 3 Zrotation Xrotation Yrotation
                JOINT LeftToe
                {
                    OFFSET   0.000000  -6.358960  14.674500
                    CHANNELS 3 Zrotation Xrotation Yrotation
                    End Site
                    {
                        OFFSET   0.000000   0.000000   3.913200
                    }
                }
            }
        }
    }
    JOINT RightHip
    {
        OFFSET  -9.783020   0.000000   0.000000
        CHANNELS 3 Zrotation Xrotation Yrotation
        JOINT RightKnee
        {
            OFFSET   0.000044 -41.789100  -0.000870
            CHANNELS 3 Zrotation Xrotation Yrotation
            JOINT RightAnkle
            {
                OFFSET  -0.000090 -41.133200  -0.000245
                CHANNELS 3 Zrotation Xrotation Yrotation
                JOINT RightToe
                {
                    OFFSET   0.000000  -6.358960  14.674500
                    CHANNELS 3 Zrotation Xrotation Yrotation
                    End Site
                    {
                        OFFSET   0.000000   0.000000   3.913200
                    }
                }
            }
        }
    }
}
MOTION
Frames: 6
Frame Time:   0.016667
  0.451146  89.401100   0.736941  -2.672870  -7.335560  -2.936490   0.978735   3.972620   0.189486   1.951330   7.947900   0.311851   1.169390   1.296670  -0.030296   1.923920   2.626150   2.832010  -5.125640  -2.881310   1.382990 -74.207300  17.293700   4.713780  -3.096480  -4.134460 -15.854600  14.245800 -11.860800   3.827650  42.139800  31.510700 -65.661200 -24.308700  -0.000726  -0.000273  -7.154370   0.000391  -0.011858 -28.368900   5.788780 -10.563700 -23.650200   0.001194  -0.000184 -16.555200   0.000226  -0.001148 -28.217500  -0.908625   1.692790 -33.699100  -0.001768   0.002423 -22.443600  -0.001351   0.003330 -27.774000  -0.895467   1.699790 -30.734700  -0.005599   0.002312 -20.469300   0.000787   0.000754 -30.764000  -0.982481   1.651030 -46.167400  -0.000544   0.003588 -30.747500  -0.000535   0.000216   9.429180  -1.030700   6.680520  72.203800  15.033300 -10.575100   2.019090 -15.531800  12.502800 -12.673800   3.016830  -1.120400 -35.528800  26.066100  62.329800  30.554000   0.001079  -0.001162  10.277000   0.000930   0.000162  24.437400   2.465310   5.407590  20.089600  -0.003021   0.005431  14.062700  -0.001470   0.005355  27.463100   1.727640   3.319720  29.261500  -0.000543   0.004502  19.488200   0.008517   0.002682  24.528800   1.555520   3.404070  24.575000  -0.006018   0.003425  16.366900   0.002704   0.004750  35.069800   0.222671   0.317165  52.605500   0.010809   0.004532  35.035200   0.004889  -0.001909   1.866650  11.094100   4.887000   1.191810   0.527736  12.728200  -2.228080  -4.570870   2.820600  -0.000000   0.000000   0.000000   2.742690  10.959600  -6.489780  -0.097301   0.771136  -7.326990  -0.291844  -4.494280   2.118210   0.000000   0.000000   0.000000
  0.443958  89.401000   0.717966  -2.669200  -7.367050  -2.884520   0.978590   3.996670   0.189416   1.951060   7.995990   0.311347   1.192380   1.337320  -0.030297   1.961990   2.708450   2.827580  -5.119510  -2.893240   1.389830 -74.211400  17.342900   4.690880  -3.103050  -4.163660 -15.832900  14.246000 -11.841700   3.832810  42.144100  31.520800 -65.662100 -24.314700  -0.000720  -0.000263  -7.157350   0.000391  -0.011858 -28.369000   5.788800 -10.562300 -23.650200   0.001193  -0.000184 -16.555200   0.000227  -0.001144 -28.217100  -0.908625   1.692790 -33.673500  -0.001773   0.002422 -22.426600  -0.001350   0.003332 -27.773600  -0.895467   1.699790 -30.720000  -0.005601   0.002310 -20.459500   0.000785   0.000758 -30.757000  -0.982481   1.651030 -46.156900  -0.000544   0.003592 -30.740500  -0.000536   0.000218   9.428930  -1.028360   6.690250  72.200300  15.087900 -10.538900   2.032640 -15.549300  12.489500 -12.599200   3.043980  -1.149180 -35.537200  26.086300  62.348200  30.544000   0.001081  -0.001147  10.272000   0.000933   0.000168  24.528800   2.486640   5.430950  20.165600  -0.003024   0.005426  14.115900  -0.001474   0.005356  27.512000   1.744440   3.342290  29.507100  -0.000544   0.004500  19.651800   0.008515   0.002677  24.682500   1.576100   3.423400  24.729500  -0.006021   0.003406  16.469800   0.002702   0.004748  35.090600   0.217980   0.310063  52.636600   0.010809   0.004528  35.055900   0.004881  -0.001905   1.881050  11.085100   4.877700   1.190850   0.571897  12.716300  -2.235810  -4.570540   2.784620   0.000000   0.000000   0.000000   2.758890  10.976700  -6.510890  -0.102405   0.777442  -7.338220  -0.304512  -4.496870   2.091940   0.000000   0.000000  -0.000000
  0.431475  89.400800   0.685755  -2.664140  -7.418550  -2.801280   0.978403   4.035610   0.189252   1.950700   8.073850   0.310356   1.233920   1.408230  -0.030301   2.030720   2.851860   2.809670  -5.108800  -2.910640   1.403240 -74.225700  17.429200   4.642020  -3.113230  -4.211790 -15.789800  14.249800 -11.814000   3.846800  42.154900  31.547100 -65.672800 -24.327500  -0.000714  -0.000254  -7.163760   0.000391  -0.011858 -28.369400   5.788870 -10.558400 -23.650200   0.001189  -0.000181 -16.555200   0.000228  -0.001131 -28.216700  -0.908626   1.692790 -33.647900  -0.001789   0.002420 -22.409500  -0.001349   0.003336 -27.773300  -0.895467   1.699790 -30.705200  -0.005607   0.002304 -20.449700   0.000779   0.000771 -30.747500  -0.982483   1.651030 -46.142500  -0.000546   0.003602 -30.730900  -0.000539   0.000225   9.428090  -1.021660   6.699970  72.187600  15.194100 -10.458900   2.053180 -15.574300  12.456000 -12.474800   3.094680  -1.197880 -35.555200  26.123900  62.380100  30.527300   0.001083  -0.001113  10.263700   0.000935   0.000173  24.688100   2.521550   5.466610  20.297900  -0.003032   0.005411  14.208600  -0.001483   0.005359  27.597400   1.761230   3.364870  29.944900  -0.000545   0.004492  19.943300   0.008510   0.002664  24.963300   1.604990   3.442750  25.011400  -0.006029   0.003361  16.657600   0.002698   0.004741  35.164000   0.200892   0.284982  52.746500   0.010809   0.004521  35.129100   0.004859  -0.001893   1.905200  11.076100   4.861740   1.189970   0.616073  12.699600  -2.247550  -4.567420   2.726020   0.000000   0.000000   0.000000   2.785640  11.005900  -6.548340  -0.110591   0.783748  -7.349440  -0.325359  -4.499500   2.047720   0.000000   0.000000   0.000000
  0.420218  89.401400   0.658731  -2.662170  -7.457100  -2.740790   0.980018   4.063990   0.189143   1.953920   8.130620   0.309818   1.273080   1.471030  -0.032258   2.095410   2.978420   2.773370  -5.100210  -2.919460   1.415110 -74.250300  17.496500   4.581390  -3.109920  -4.245300 -15.741300  14.261900 -11.804000   3.869520  42.172400  31.587300 -65.699100 -24.341600  -0.000724  -0.000277  -7.170810   0.000383  -0.011871 -28.385600   5.788990 -10.552300 -23.663100   0.001179  -0.000174 -16.564200   0.000228  -0.001109 -28.218800  -0.914080   1.702820 -33.662600  -0.001813   0.002417 -22.419300  -0.001346   0.003343 -27.775000  -0.900846   1.709860 -30.716800  -0.005615   0.002294 -20.457400   0.000773   0.000792 -30.743900  -0.988218   1.660900 -46.137200  -0.000550   0.003615 -30.727400  -0.000544   0.000237   9.426650  -1.011300   6.697230  72.165900  15.307000 -10.364000   2.066030 -15.585400  12.412800 -12.374900   3.143830  -1.235190 -35.577900  26.161400  62.404500  30.512600   0.001081  -0.001071  10.256300   0.000933   0.000171  24.830300   2.547940   5.488000  20.415700  -0.003048   0.005384  14.291000  -0.001494   0.005363  27.673700   1.758260   3.351030  30.354100  -0.000547   0.004480  20.215800   0.008499   0.002644  25.242300   1.616100   3.424400  25.290200  -0.006040   0.003297  16.843400   0.002690   0.004731  35.305700   0.167484   0.236510  52.958700   0.010809   0.004510  35.270400   0.004825  -0.001876   1.923660  11.088700   4.848490   1.189300   0.605181  12.692500  -2.255170  -4.543910   2.681640  -0.000000   0.000000   0.000000   2.807090  11.030700  -6.584310  -0.117391   0.780203  -7.344080  -0.341221  -4.493730   2.010920   0.000000   0.000000  -0.000000
  0.408789  89.402700   0.631055  -2.662100  -7.495620  -2.686300   0.983968   4.091750   0.188730   1.961930   8.186170   0.307956   1.317950   1.538790  -0.035690   2.169540   3.114990   2.724200  -5.089020  -2.925080   1.435480 -74.288300  17.589800   4.506100  -3.097760  -4.285790 -15.682700  14.279400 -11.791700   3.898300  42.191800  31.640500 -65.740100 -24.363500  -0.000737  -0.000300  -7.181730   0.000368  -0.011899 -28.417900   5.789130 -10.544500 -23.689100   0.001166  -0.000163 -16.582400   0.000228  -0.001080 -28.223600  -0.923691   1.720390 -33.699300  -0.001845   0.002413 -22.443800  -0.001343   0.003353 -27.779300  -0.910323   1.727500 -30.743800  -0.005627   0.002280 -20.475400   0.000765   0.000819 -30.742600  -0.998416   1.678130 -46.135800  -0.000556   0.003633 -30.726500  -0.000551   0.000252   9.424630  -0.995798   6.690590  72.130000  15.446200 -10.225300   2.075060 -15.591800  12.341000 -12.276100   3.205180  -1.279700 -35.603800  26.208400  62.434300  30.500200   0.001080  -0.001013  10.250100   0.000929   0.000169  24.981200   2.573890   5.505890  20.540600  -0.003069   0.005349  14.378400  -0.001508   0.005370  27.753200   1.751430   3.324340  30.798700  -0.000548   0.004465  20.511900   0.008484   0.002618  25.546300   1.622120   3.389870  25.594200  -0.006055   0.003224  17.045800   0.002679   0.004716  35.490600   0.123490   0.173336  53.235800   0.010810   0.004497  35.455000   0.004783  -0.001852   1.942920  11.115000   4.834070   1.188770   0.578634  12.690100  -2.262260  -4.503660   2.639470  -0.000000   0.000000   0.000000   2.827130  11.056500  -6.620440  -0.121424   0.774803  -7.332960  -0.357721  -4.480690   1.974620   0.000000   0.000000  -0.000000
  0.398749  89.404600   0.604025  -2.663520  -7.535550  -2.638060   0.989805   4.119730   0.187807   1.973750   8.242120   0.304904   1.368720   1.612300  -0.038684   2.253530   3.263480   2.664560  -5.072370  -2.927620   1.474800 -74.343900  17.735800   4.417740  -3.085120  -4.341900 -15.615900  14.304100 -11.766700   3.932840  42.207200  31.708900 -65.795800 -24.402200  -0.000741  -0.000281  -7.201100   0.000352  -0.011935 -28.458000   5.789360 -10.532400 -23.721200   0.001155  -0.000154 -16.604900   0.000227  -0.001046 -28.230600  -0.934869   1.740550 -33.757700  -0.001886   0.002410 -22.482600  -0.001337   0.003366 -27.786000  -0.921332   1.747750 -30.783900  -0.005640   0.002264 -20.502100   0.000753   0.000852 -30.748400  -1.010550   1.697720 -46.145100  -0.000564   0.003654 -30.732700  -0.000559   0.000271   9.421060  -0.965996   6.681280  72.073000  15.616500 -10.021500   2.077090 -15.589100  12.225400 -12.178100   3.279170  -1.341870 -35.629800  26.270100  62.479600  30.494600   0.001089  -0.000929  10.247500   0.000926   0.000171  25.142000   2.598110   5.516910  20.673300  -0.003095   0.005310  14.471300  -0.001527   0.005379  27.835500   1.739010   3.286810  31.279400  -0.000550   0.004448  20.832100   0.008466   0.002588  25.866100   1.624890   3.343530  25.918500  -0.006072   0.003149  17.261700   0.002666   0.004698  35.711600   0.070286   0.098110  53.567100   0.010811   0.004479  35.675700   0.004736  -0.001823   1.964550  11.150800   4.815620   1.190260   0.526958  12.695100  -2.268410  -4.456590   2.599430  -0.000000   0.000000  -0.000000   2.842260  11.084700  -6.651760  -0.116221   0.770925  -7.317700  -0.375817  -4.462180   1.937440   0.000000   0.000000   0.000000
